<svg xmlns="http://www.w3.org/2000/svg" width="67.786" height="64.845" viewBox="0 0 67.786 64.845">
  <g id="company" transform="translate(0.5 500.811)">
    <path id="Path_36" data-name="Path 36" d="M17.609-500.255a3.013,3.013,0,0,0-2.361,1.761c-.209.456-.248.9-.248,3.809v3.274l-2.244.743a27.8,27.8,0,0,0-2.791,1.057,4.951,4.951,0,0,0-1.8,2l-.274.6L7.853-469.51l-.026,17.518H7.4a8.214,8.214,0,0,0-2.961.874,8.613,8.613,0,0,0-3.574,3.587C.117-445.979,0-445.2,0-441.622c0,2.779.039,3.2.248,3.665a2.443,2.443,0,0,0,1.709,1.344c.822.2,62.051.2,62.872,0a2.443,2.443,0,0,0,1.709-1.344c.222-.483.248-.913.248-4.448,0-4.265-.052-4.735-.757-6.17a7.315,7.315,0,0,0-2.583-2.661,6.777,6.777,0,0,0-3.209-.757H59.22v-8.257c0-8.948,0-8.987-.717-9.913a3.438,3.438,0,0,0-1.017-.809l-.665-.326H39v-24.458l1.148,1.122c.626.613,2.335,2.283,3.809,3.691a37.25,37.25,0,0,1,2.9,2.987c.209.378.222,1.043.235,6.848v6.431l.326.313a.9.9,0,0,0,1.357.026l.287-.313-.039-6.7-.039-6.7-.352-.717c-.3-.613-1.161-1.513-5.139-5.348-2.622-2.543-4.944-4.709-5.139-4.813-.352-.169-.848-.026-8.726,2.622l-8.361,2.791v-1.97a10.907,10.907,0,0,0-.2-2.622A3.012,3.012,0,0,0,17.609-500.255Zm.978,2.035a1.072,1.072,0,0,1,.574.6,15.493,15.493,0,0,1,.143,2.6v2.178l-1.174.391-1.174.4v-2.778c0-2.6.013-2.8.261-3.118a1.109,1.109,0,0,1,.561-.391,1.618,1.618,0,0,0,.326-.078A2.632,2.632,0,0,1,18.588-498.22Zm18.457,4.148v2.661l-5.5,1.839c-12.066,4.031-16.2,5.465-16.37,5.7a.945.945,0,0,0,.73,1.487c.209,0,5.009-1.552,10.67-3.457S36.889-489.3,36.954-489.3a16.49,16.49,0,0,1,.091,2.465v2.465l-6.287,2.1c-11.818,3.94-15.405,5.192-15.588,5.439a.945.945,0,0,0,.73,1.487c.209,0,5.009-1.552,10.683-3.457s10.344-3.457,10.383-3.457a20.517,20.517,0,0,1,.078,2.465v2.465l-6.874,2.3c-11.7,3.9-14.818,5-15,5.244a.945.945,0,0,0,.73,1.487c.209,0,5.009-1.552,10.683-3.456s10.331-3.457,10.37-3.457a16.383,16.383,0,0,1,.091,2.452v2.465L26.258-466.68c-7.5,2.517-10.866,3.7-11.022,3.887a.939.939,0,0,0,.678,1.539c.2,0,5-1.552,10.657-3.457s10.331-3.456,10.383-3.456a15.777,15.777,0,0,1,.091,2.413c0,2.2-.026,2.413-.248,2.531-.13.078-3.131,1.109-6.679,2.3s-6.561,2.244-6.718,2.348a.872.872,0,0,0-.248,1.2c.47.717.313.757,7.239-1.579,3.535-1.187,6.47-2.165,6.535-2.165s.1,4.774.091,11.309l-.039,11.322-4.2.039-4.213.026V-443.6c0-3-.052-5.387-.13-5.648a2.256,2.256,0,0,0-2.335-1.474c-1.37.313-9.587,2.661-9.874,2.817a2.362,2.362,0,0,0-.587.431c-.561.639-.574.77-.639,4.944l-.065,4.044H9.848l-.039-23.936-.026-23.949.287-.574a2.947,2.947,0,0,1,.639-.822c.2-.143,5.152-1.865,11.022-3.835s11.687-3.926,12.9-4.344,2.257-.77,2.322-.77A18.814,18.814,0,0,1,37.045-494.073Zm19.879,25.136.339.4v17l-.665.391a6.735,6.735,0,0,0-3.248,5.831v.757H39v-24.784H56.585ZM7.826-447.3v2.739H1.957l.078-.365a6.412,6.412,0,0,1,1.891-3.47,5.966,5.966,0,0,1,3.548-1.63l.352-.013Zm54.5-2.309A4.432,4.432,0,0,1,64.8-445.64l.065,1.083h-9.6l.078-1.031a4.78,4.78,0,0,1,1.239-3.052A4.191,4.191,0,0,1,60.329-450,3.826,3.826,0,0,1,62.325-449.605Zm-35.741,6.039-.039,5.074H22.762l-.039-4.644-.026-4.631,1.852-.535a11.023,11.023,0,0,1,1.97-.444C26.571-448.692,26.6-446.37,26.584-443.566Zm-5.844.77v4.37H16.957l.026-3.874.039-3.887,1.7-.483c.939-.261,1.774-.482,1.865-.482C20.7-447.166,20.74-446.214,20.74-442.8ZM7.826-440.513v2.087h-2.6a19.365,19.365,0,0,1-2.935-.13l-.339-.13V-442.6h5.87Zm45.524,0v2.087H39V-442.6H53.35Zm11.479-.235a10.246,10.246,0,0,1-.13,2.061c-.1.169-.77.2-4.722.2h-4.6l-.039-2.061-.039-2.048h9.535Z" transform="translate(0 0)" fill="#8967b3" stroke="#8967b3" stroke-width="1"/>
    <path id="Path_37" data-name="Path 37" d="M117.432-170.216a7.991,7.991,0,0,0-2.178.926.956.956,0,0,0,.7,1.5,22.227,22.227,0,0,0,4.474-1.526,1.22,1.22,0,0,0,.17-.652.9.9,0,0,0-.887-.939A20.647,20.647,0,0,0,117.432-170.216Z" transform="translate(-100.07 -286.42)" fill="#8967b3" stroke="#8967b3" stroke-width="1"/>
    <path id="Path_38" data-name="Path 38" d="M319.77-244.7c-.678.457-.77.757-.77,2.544s.117,2.152.783,2.557c.326.183.991.209,5.648.209h5.27l.444-.3c.639-.43.8-1.03.743-2.7-.065-1.578-.248-2.074-.939-2.4-.391-.183-1.1-.209-5.6-.209C320.213-245,320.213-245,319.77-244.7Zm10.187,2.5v.848h-9v-1.7h9Z" transform="translate(-277.389 -221.993)" fill="#8967b3" stroke="#8967b3" stroke-width="1"/>
    <path id="Path_39" data-name="Path 39" d="M319.744-187.7a2.2,2.2,0,0,0-.6.613,10.391,10.391,0,0,0,.026,3.913c.4.783.443.783,6.313.783h5.335l.4-.339c.535-.457.7-1.148.639-2.726-.065-1.513-.261-2.009-.939-2.335-.391-.183-1.1-.209-5.6-.209C320.188-188,320.188-188,319.744-187.7Zm10.187,2.5v.848h-9v-1.7h9Z" transform="translate(-277.364 -271.558)" fill="#8967b3" stroke="#8967b3" stroke-width="1"/>
    <path id="Path_40" data-name="Path 40" d="M319.77-129.778c-.652.4-.77.783-.77,2.544,0,1.8.091,2.087.783,2.557.444.287.535.3,2.583.261l2.139-.039.444-.483.443-.5v-1.7c0-2.752-.131-2.87-3.222-2.87C320.5-130,320.044-129.948,319.77-129.778Zm3.665,2.583v.848h-2.478v-1.7h2.478Z" transform="translate(-277.389 -321.992)" fill="#8967b3" stroke="#8967b3" stroke-width="1"/>
  </g>
</svg>
