<svg xmlns="http://www.w3.org/2000/svg" width="39.864" height="39.957" viewBox="0 0 39.864 39.957">
  <g id="quality_assurance" transform="translate(-0.636 512.424)">
    <path id="Path_22" data-name="Path 22" d="M20.1-511.749c-.167.091-1.142.723-2.161,1.4l-1.849,1.218-.4-.031c-1.553-.129-4.536-.251-4.7-.19a1.014,1.014,0,0,0-.342.244c-.091.1-.647,1.142-1.233,2.313l-1.065,2.131-2.169,1.088c-2.359,1.18-2.572,1.332-2.557,1.826,0,.152.061,1.3.129,2.557l.129,2.268-1.355,2.062a20.433,20.433,0,0,0-1.4,2.306c-.053.312-.023.365,1.469,2.633L3.873-488l-.129,2.534c-.129,2.352-.129,2.542-.008,2.725.167.259.335.358,2.61,1.5l2.009,1L9.421-478.1c1.073,2.146,1.248,2.435,1.568,2.557.145.053,2.96-.061,4.627-.19l.464-.038,1.963,1.294c2.192,1.446,2.314,1.514,2.572,1.514a16.546,16.546,0,0,0,2.306-1.4l2.123-1.393,2.5.137c2.4.137,2.511.137,2.74.008.2-.106.434-.525,1.377-2.374l1.142-2.245,2.207-1.111a23.961,23.961,0,0,0,2.336-1.286c.175-.213.175-.662.023-3.341l-.122-2.009,1.377-2.07c1.21-1.819,1.37-2.1,1.37-2.374,0-.335-.076-.472-1.766-3.037l-.959-1.453.137-2.466c.137-2.321.137-2.481.015-2.732s-.342-.373-2.374-1.416l-2.245-1.142-1.142-2.237c-.928-1.819-1.187-2.268-1.37-2.374-.221-.122-.358-.122-2.74.008l-2.5.129-1.986-1.309c-1.1-.715-2.062-1.339-2.154-1.393A.766.766,0,0,0,20.1-511.749Zm2.542,2.968c1.781,1.164,1.956,1.263,2.276,1.263.19,0,1.263-.053,2.4-.122a17.772,17.772,0,0,1,2.116-.053c.03.03.51.951,1.065,2.04s1.058,2.04,1.126,2.123,1.05.6,2.177,1.164,2.062,1.035,2.07,1.043-.038,1.073-.107,2.359a15.351,15.351,0,0,0-.053,2.542c.046.114.639,1.05,1.317,2.085l1.24,1.887-1.3,1.986-1.3,1.986V-488c0,.251.053,1.355.114,2.435s.107,1.979.1,1.986-.944.487-2.078,1.05-2.108,1.088-2.177,1.164-.578,1.05-1.134,2.154-1.058,2.017-1.111,2.04-1.012-.023-2.146-.084-2.184-.122-2.352-.122c-.274,0-.548.16-2.222,1.256-1.058.7-1.963,1.279-2.017,1.3a18.9,18.9,0,0,1-2.093-1.271l-2-1.317-2.4.129c-1.324.076-2.412.122-2.42.114s-.472-.928-1.027-2.039-1.065-2.078-1.134-2.161a24.292,24.292,0,0,0-2.177-1.164c-1.126-.563-2.07-1.043-2.085-1.058s.03-1.073.1-2.352.107-2.39.084-2.481-.616-1.012-1.3-2.055-1.248-1.925-1.248-1.971.556-.921,1.24-1.956,1.263-1.956,1.3-2.04,0-1.2-.076-2.5-.114-2.352-.1-2.367.967-.495,2.108-1.065c1.712-.86,2.108-1.088,2.23-1.286.076-.137.578-1.1,1.1-2.146s.974-1.91.982-1.925.944.03,2.078.091,2.215.122,2.428.122c.358,0,.457-.053,2.314-1.286a19.553,19.553,0,0,1,2.047-1.271C20.654-510.059,21.575-509.481,22.641-508.781Z" fill="#8967b3" stroke="#8967b3" stroke-width="1"/>
    <path id="Path_23" data-name="Path 23" d="M107.778-414.615a12.224,12.224,0,0,0-9.642,8.858,13.272,13.272,0,0,0-.3,4.734,12.179,12.179,0,0,0,9.551,10.228,14.838,14.838,0,0,0,4.224.122,11.921,11.921,0,0,0,4.962-1.925,12.091,12.091,0,0,0,2.953-17.336,12.128,12.128,0,0,0-7.268-4.6A14.991,14.991,0,0,0,107.778-414.615Zm3.493,1.56a10.487,10.487,0,0,1,8.874,8.341,11.932,11.932,0,0,1,0,4.094,10.5,10.5,0,0,1-5.54,7.3,10.487,10.487,0,0,1-14.825-6.416,9.366,9.366,0,0,1-.4-3.272,9.97,9.97,0,0,1,1-4.186A10.488,10.488,0,0,1,111.272-413.055Z" transform="translate(-89.27 -89.782)" fill="#8967b3" stroke="#8967b3" stroke-width="1"/>
    <path id="Path_24" data-name="Path 24" d="M191.9-305.68c-.19.183-1.56,1.469-3.037,2.861l-2.679,2.527-1.507-1.53c-1.4-1.415-1.53-1.53-1.826-1.568s-.35-.015-.594.228a.712.712,0,0,0-.129.974c.068.114.921,1,1.88,1.986a14.1,14.1,0,0,0,1.941,1.827c.457.084.632-.053,3.584-2.839,3.486-3.28,3.775-3.562,3.836-3.82a.766.766,0,0,0-.776-.966C192.311-306,192.212-305.954,191.9-305.68Z" transform="translate(-167.106 -190.254)" fill="#8967b3" stroke="#8967b3" stroke-width="1"/>
  </g>
</svg>
