<svg xmlns="http://www.w3.org/2000/svg" width="52.207" height="52.035" viewBox="0 0 52.207 52.035">
  <g id="devops" transform="translate(0.575 512.113)">
    <path id="Path_4" data-name="Path 4" d="M105.319-511.588a15.782,15.782,0,0,0-7.5,2.741A18.948,18.948,0,0,0,94.5-505.6a15.991,15.991,0,0,0-1.634,2.691c0,.169-.169.159-.269-.01a1.029,1.029,0,0,0-.827-.359.985.985,0,0,0-.9.927,10.816,10.816,0,0,0,1.345,3.059c.379.369.807.309,2.292-.369,1.166-.528,1.315-.618,1.475-.957a.722.722,0,0,0,.07-.718.878.878,0,0,0-.977-.648c-.518,0-.528.01.149-1.116a13.307,13.307,0,0,1,5.461-5.132,11.982,11.982,0,0,1,6.029-1.365,11.863,11.863,0,0,1,4.783.807,12.062,12.062,0,0,1,4.853,3.249,12.405,12.405,0,0,1,3.657,9.238,12.444,12.444,0,0,1-3.667,9.258,12.907,12.907,0,0,1-6.816,3.8,13.764,13.764,0,0,1-10.354-2,18.149,18.149,0,0,1-1.794-1.5,15.515,15.515,0,0,0-4.066-2.92A14.461,14.461,0,0,0,89.5-491.04a20.6,20.6,0,0,0-6.009-.04,12.5,12.5,0,0,0-4.365,1.664.97.97,0,0,0,.06,1.315c.379.369.817.349,1.734-.07a13.146,13.146,0,0,1,3.358-1.007,16.068,16.068,0,0,1,5.052.14,13.441,13.441,0,0,1,6.358,3.468,16.117,16.117,0,0,0,4,2.92,15.594,15.594,0,0,0,12.088.837,15.133,15.133,0,0,0,8.64-7.514,18.142,18.142,0,0,0,1.405-4.185,19.184,19.184,0,0,0-.04-5.75,15.167,15.167,0,0,0-4.9-8.58,14.807,14.807,0,0,0-9.716-3.757C106.346-511.618,105.509-511.608,105.319-511.588Z" transform="translate(-70.954)" fill="#8967b3" stroke="#8967b3" stroke-width="1"/>
    <path id="Path_5" data-name="Path 5" d="M267.265-457.918c-.339.179-.458.5-.578,1.594a2.955,2.955,0,0,1-.2.927c-.05.02-.379.209-.737.419a4.008,4.008,0,0,1-.757.4,7.017,7.017,0,0,1-.9-.349c-.927-.409-1.415-.448-1.734-.129A30.429,30.429,0,0,0,260-450.9c0,.409.279.767,1.036,1.3l.757.538v1.923l-.757.538c-.817.588-1.086.967-1,1.405a30.183,30.183,0,0,0,2.362,4.1c.319.269.8.219,1.754-.2l.887-.389.478.329a5.185,5.185,0,0,0,.767.438c.3.13.339.239.438,1.3.14,1.475.179,1.495,3.039,1.495,2.412,0,2.671-.05,2.87-.568a6.359,6.359,0,0,0,.219-1.176,3.588,3.588,0,0,1,.179-.927c.04-.01.379-.2.757-.419a5.015,5.015,0,0,1,.777-.4,7.174,7.174,0,0,1,.887.349c.937.409,1.375.438,1.724.12a22.672,22.672,0,0,0,2.352-4.215c0-.409-.229-.678-1.086-1.285l-.707-.5v-.947l.01-.947.747-.548c.877-.638,1.036-.827,1.036-1.246a22.989,22.989,0,0,0-2.352-4.215c-.349-.309-.787-.279-1.724.129-.917.409-.937.409-1.286.16a7.061,7.061,0,0,0-.717-.409c-.249-.12-.458-.229-.468-.239s-.07-.419-.13-.907c-.13-1.106-.249-1.415-.608-1.594A19.844,19.844,0,0,0,267.265-457.918Zm3.637,2.162c.03.179.08.548.11.817.11.8.2.917,1.186,1.405a12.1,12.1,0,0,1,1.4.8c.588.428.847.439,1.7.05a4.128,4.128,0,0,1,.787-.3c.07,0,.2.15.289.319s.319.608.508.937l.359.608-.578.409c-1.007.7-.957.6-.977,2.541a6.157,6.157,0,0,0,.12,1.923,3.936,3.936,0,0,0,.777.688l.648.478-.349.608c-.189.339-.419.757-.508.927s-.219.329-.279.329a3.888,3.888,0,0,1-.777-.3,1.463,1.463,0,0,0-1.913.149,10.034,10.034,0,0,1-1.355.787,3.141,3.141,0,0,0-.857.528,3.082,3.082,0,0,0-.179.787c-.03.319-.09.708-.11.857l-.06.279h-1.086c-.8,0-1.086-.03-1.086-.13a8.8,8.8,0,0,0-.3-1.774,3.083,3.083,0,0,0-.927-.578,8.859,8.859,0,0,1-1.355-.8c-.668-.5-.947-.518-1.853-.11a5.434,5.434,0,0,1-.747.3,2.291,2.291,0,0,1-.458-.628c-.2-.339-.448-.757-.548-.927l-.189-.309.528-.359c1.046-.727,1.017-.628,1.026-2.651a8.373,8.373,0,0,0-.1-1.923,8.143,8.143,0,0,0-.767-.638l-.658-.5.478-.837a5.406,5.406,0,0,1,.608-.927c.08-.05.389.03.807.219.927.419,1.2.4,1.863-.11a9.924,9.924,0,0,1,1.365-.787,3.081,3.081,0,0,0,.927-.578,8.79,8.79,0,0,0,.3-1.784c0-.09.289-.12,1.1-.12h1.086Z" transform="translate(-234.006 -48.199)" fill="#8967b3" stroke="#8967b3" stroke-width="1"/>
    <path id="Path_6" data-name="Path 6" d="M325.885-392.717a3.481,3.481,0,0,0-2.272,1.963,3.662,3.662,0,0,0,.01,2.81,3.881,3.881,0,0,0,1.754,1.754,2.609,2.609,0,0,0,1.415.269,3.236,3.236,0,0,0,2.382-.9,3.612,3.612,0,0,0,.558-4.425A3.619,3.619,0,0,0,325.885-392.717Zm1.565,2.023a1.44,1.44,0,0,1,.807,1.226,1.292,1.292,0,0,1-.767,1.375,1.293,1.293,0,0,1-1.375.03,1.051,1.051,0,0,1-.618-.618,1.268,1.268,0,0,1,0-1.325A1.458,1.458,0,0,1,327.449-390.695Z" transform="translate(-291.031 -106.942)" fill="#8967b3" stroke="#8967b3" stroke-width="1"/>
    <path id="Path_7" data-name="Path 7" d="M42.829-265.6a.753.753,0,0,0-.329.707.966.966,0,0,0,1.8.488.926.926,0,0,0-.359-1.335A.879.879,0,0,0,42.829-265.6Z" transform="translate(-38.18 -221.24)" fill="#8967b3" stroke="#8967b3" stroke-width="1"/>
    <path id="Path_8" data-name="Path 8" d="M63.41-253.85c-.329.179-.458.508-.538,1.345-.1,1.1-.12,1.146-.578,1.375-.229.12-.588.309-.787.429l-.359.219-.847-.359c-.937-.409-1.435-.458-1.754-.2a30.907,30.907,0,0,0-2.362,4.106c-.09.428.14.737.987,1.385l.787.578v1.864l-.8.578c-.827.608-1.086.987-.977,1.425a33.5,33.5,0,0,0,2.382,4.066c.329.269.837.209,1.754-.209l.847-.379.688.429a8.925,8.925,0,0,0,.787.458,3.766,3.766,0,0,1,.219,1.066c.12.967.14,1.056.438,1.315l.319.289h2.252c2.461,0,2.7-.05,2.92-.568a10.765,10.765,0,0,0,.309-1.933c0-.08.169-.229.379-.329a8.265,8.265,0,0,0,.777-.458l.419-.279.867.389c1.007.448,1.425.488,1.784.169a24.089,24.089,0,0,0,2.352-4.2c0-.439-.14-.618-1-1.266l-.8-.608v-.917l.01-.917.747-.548c.877-.638,1.036-.827,1.036-1.246a22.355,22.355,0,0,0-2.352-4.215c-.349-.309-.747-.279-1.764.15-.867.359-.9.359-1.146.189-.149-.09-.5-.289-.777-.428-.568-.289-.508-.12-.7-1.774a1.191,1.191,0,0,0-.349-.867L68.322-254H65.991A9.1,9.1,0,0,0,63.41-253.85Zm3.637,2.013c.02.1.07.488.11.857a1.4,1.4,0,0,0,1.026,1.405,5.5,5.5,0,0,1,.987.538c.309.2.678.448.817.538.369.249.688.219,1.455-.12a4.423,4.423,0,0,1,.777-.3c.07,0,.189.13.279.279s.329.578.528.937l.359.648-.588.418c-.987.688-.957.618-.957,2.621a5.51,5.51,0,0,0,.14,1.913,7.879,7.879,0,0,0,.767.628l.628.458-.349.608c-.189.339-.419.757-.508.927s-.209.329-.259.329a5.226,5.226,0,0,1-.767-.3c-.937-.409-1.226-.389-1.893.12a9.23,9.23,0,0,1-1.345.777c-.877.409-.987.548-1.1,1.355-.03.269-.08.638-.11.807l-.05.329H65.911c-.807,0-1.1-.03-1.1-.13a8.082,8.082,0,0,0-.309-1.774,2.952,2.952,0,0,0-.917-.588,8.854,8.854,0,0,1-1.355-.787c-.668-.508-.937-.518-1.893-.09-.429.189-.747.279-.807.219-.04-.05-.309-.478-.578-.957l-.5-.867.389-.259a7.043,7.043,0,0,0,.777-.6l.379-.349L59.982-244a15.541,15.541,0,0,0-.09-1.933,3.41,3.41,0,0,0-.718-.628,2.446,2.446,0,0,1-.638-.558,9.529,9.529,0,0,1,1.086-1.794,5.08,5.08,0,0,1,.787.3c.937.4,1.156.389,1.814-.12a9.908,9.908,0,0,1,1.365-.787,3.083,3.083,0,0,0,.927-.578,8.786,8.786,0,0,0,.3-1.784c0-.09.289-.12,1.086-.12C66.858-252.007,67-251.987,67.047-251.838Z" transform="translate(-50.48 -231.938)" fill="#8967b3" stroke="#8967b3" stroke-width="1"/>
    <path id="Path_9" data-name="Path 9" d="M121.938-188.684a3.534,3.534,0,0,0-2.212,1.953,3.763,3.763,0,0,0-.01,2.74,3.518,3.518,0,0,0,4.8,1.734,3.5,3.5,0,0,0-.1-6.228A3.882,3.882,0,0,0,121.938-188.684Zm1.844,2.123a1.492,1.492,0,0,1-.14,2.491,1.4,1.4,0,0,1-1.864-.359,1.46,1.46,0,0,1,.379-2.182A1.6,1.6,0,0,1,123.781-186.562Z" transform="translate(-107.473 -290.636)" fill="#8967b3" stroke="#8967b3" stroke-width="1"/>
    <path id="Path_10" data-name="Path 10" d="M2.2-229.361c-.259.129-.409.349-.708.977A15.531,15.531,0,0,0,2.745-213.3a18.965,18.965,0,0,0,3.508,3.657,15.35,15.35,0,0,0,13.164,2.491,15.238,15.238,0,0,0,9.557-7.514l.419-.817.3.259a.948.948,0,0,0,1.545-.409c.159-.379.169-.339-.578-2.073-.528-1.206-.817-1.555-1.315-1.555a15.553,15.553,0,0,0-3.069,1.405,1.057,1.057,0,0,0,.09,1.286c.239.289.309.309.737.279l.478-.03-.4.747A12.854,12.854,0,0,1,25-212.639a12.784,12.784,0,0,1-8.221,3.956A14.211,14.211,0,0,1,9.4-210.008a14.142,14.142,0,0,1-6.059-6.258,12.915,12.915,0,0,1-1.236-5.082A13.08,13.08,0,0,1,3.234-227.4c.409-.957.438-1.076.339-1.385A.975.975,0,0,0,2.2-229.361Z" transform="translate(0 -254.026)" fill="#8967b3" stroke="#8967b3" stroke-width="1"/>
  </g>
</svg>
