<svg xmlns="http://www.w3.org/2000/svg" width="10.799" height="16.126" viewBox="0 0 10.799 16.126">
  <g id="placeholder" transform="translate(-86.034 512.158)">
    <path id="Path_227" data-name="Path 227" d="M90.856-511.954a5.277,5.277,0,0,0-4.5,3.907,5.585,5.585,0,0,0,.037,2.828c.306,1.066.816,1.888,2.525,4.064.334.423.606.782.606.791s-.071.031-.161.04a6.754,6.754,0,0,0-2.423.847,2.216,2.216,0,0,0-.655.708.821.821,0,0,0-.083.442,1.041,1.041,0,0,0,.346.807,4.217,4.217,0,0,0,2.126,1.045,10.352,10.352,0,0,0,2.782.294,10.723,10.723,0,0,0,2.179-.167c1.53-.278,2.643-.856,2.961-1.536a.883.883,0,0,0,.083-.442,1.044,1.044,0,0,0-.362-.825,2.642,2.642,0,0,0-.828-.581,7.668,7.668,0,0,0-1.969-.59c-.09-.009-.164-.028-.164-.04s.343-.454.757-.989a13.372,13.372,0,0,0,2.228-3.434,4.987,4.987,0,0,0,.334-1.932,4.585,4.585,0,0,0-.2-1.508A5.271,5.271,0,0,0,90.856-511.954Zm1.5.677a4.666,4.666,0,0,1,3.471,3.044,3.948,3.948,0,0,1,.235,1.5,4.449,4.449,0,0,1-.535,2.241,16.853,16.853,0,0,1-2.16,3.1c-.535.686-1.181,1.527-1.434,1.87a7.647,7.647,0,0,1-.488.621c-.012,0-.275-.337-.581-.745s-.887-1.168-1.292-1.685a18.814,18.814,0,0,1-2.222-3.162,5.027,5.027,0,0,1-.451-1.286,5.658,5.658,0,0,1,0-1.855,4.628,4.628,0,0,1,2.476-3.242,4.682,4.682,0,0,1,1.515-.467A6.048,6.048,0,0,1,92.355-511.277Zm-1.876,12.153c.269.362.547.745.621.847.17.247.318.315.488.219a4.719,4.719,0,0,0,.448-.562c.21-.291.491-.671.624-.847l.241-.318.176.022a10.448,10.448,0,0,1,1.481.328c.794.26,1.4.655,1.493.98.244.841-2.046,1.675-4.608,1.675-1.963,0-3.823-.482-4.442-1.153-.272-.294-.253-.535.065-.841a4.951,4.951,0,0,1,2.42-.94C90.025-499.81,89.923-499.872,90.479-499.124Z" transform="translate(0)" stroke="#000" stroke-width="0.3"/>
    <path id="Path_228" data-name="Path 228" d="M247.269-471.914a.309.309,0,0,0,.17.575.38.38,0,0,0,.291-.309.27.27,0,0,0-.105-.2A.269.269,0,0,0,247.269-471.914Z" transform="translate(-155.946 -38.794)" stroke="#000" stroke-width="0.3"/>
    <path id="Path_229" data-name="Path 229" d="M286.6-464.91a.23.23,0,0,0-.1.213c0,.158.09.257.287.331a3.467,3.467,0,0,1,1.845,1.725,3.679,3.679,0,0,1,.325,1.4.288.288,0,0,0,.105.275.248.248,0,0,0,.411,0l.111-.111-.019-.331a4.025,4.025,0,0,0-1.947-3.236,2.853,2.853,0,0,0-.831-.355A.322.322,0,0,0,286.6-464.91Z" transform="translate(-194.114 -45.535)" stroke="#000" stroke-width="0.3"/>
    <path id="Path_230" data-name="Path 230" d="M187.746-411.831a2.248,2.248,0,0,0-1.023.544,2.109,2.109,0,0,0-.457,2.528,1.717,1.717,0,0,0,.411.559,1.717,1.717,0,0,0,.559.411,2.069,2.069,0,0,0,1.916,0,1.651,1.651,0,0,0,.559-.408,1.651,1.651,0,0,0,.408-.559,2.06,2.06,0,0,0,0-1.916,1.652,1.652,0,0,0-.408-.559,1.718,1.718,0,0,0-.559-.411A2.131,2.131,0,0,0,187.746-411.831Zm.763.6a1.521,1.521,0,0,1,.77.427,1.506,1.506,0,0,1,0,2.17,1.477,1.477,0,0,1-.729.414,1.555,1.555,0,0,1-1.9-1.5,1.578,1.578,0,0,1,1.184-1.5A1.666,1.666,0,0,1,188.509-411.229Z" transform="translate(-96.751 -97.016)" stroke="#000" stroke-width="0.3"/>
  </g>
</svg>
